<svg id="Warstwa_1" data-name="Warstwa 1" xmlns="http://www.w3.org/2000/svg" viewBox="0 0 775.26 620.02">
  <title>LOGO</title>
  <path d="M137.21,518.16c3.35,32,33.4,66.67,49.1,88.73,26.59,37.38,87.89,44.59,108.47,42,22-2.79,43.51-12,59.49-27.59,36.35-35.39,18.5-74,31.59-115.48,4.48-24.55,29.57-16.49,40.2-5.29,16.19,17.07,15.1,55.05,18.94,76.32C454.19,627.9,464,681.78,495.12,724.7c58.16,80.33,159.81,88.88,248,61,74-23.38,140.13-79.18,161.89-155.63,5.18-18.21,12-53.27-.17-99.15-28.75-92.2-101.19-112.33-185.87-121.42-23.69-2.54-82.47-6.26-83.65-40.63-1.69-48.85,70.79-28.27,95.76-25C710.44,349.56,687,357.07,689,382.16c5.19-25.47,54.37-33.81,75.9-41.64,4.94,21-60.46,13.15-52.8,40.57a22.94,22.94,0,0,0,2.77,8.77c-2.78-29.33,48.06-12.4,63.06-28.21,18.5-19.49,11.46-62.13-12.71-74.57,13.07,37.53-88.69,22.07-108.59,31.73,23.58-23.43,65.21-4.62,83.22-30.57C710.47,306.23,662,275.81,645,319,633,259.16,750.05,286.32,776,271.51c45.74-26.14-13.94-64.62-20.47-30.29-16.28-8.61-15.85,7.49-28.49,9.8-18,3.3-39.17,4.36-56.84-1.15,32.7-26.63-26.49-38.21-35.11-42-16.74-7.26-30.15-25.33-53.29-27.53-28.5-2.7-49.92,14.09-74.68,24.57-13.23,5.6-26.53,14.71-41.47,10.08-0.71-.22-20.9-8.89-17.26-12.81-5.59,2.25,12.91,20.52,16.41,22.61,14.38,8.59,34.39,2.75,49.54-.24,23.39-4.62,59.23-24.38,80.52-4.46-48.23-23-104.32,57.14-145.19,23.45,29.18,39.19,77.2-7.88,112.66-5.63-19.72,12.14-40.29,19.29-60.9,31.64-11.88,7.12-26.36,21.15-42,15.44,23.48,14,51.11-12.93,71.32-21.58a100.28,100.28,0,0,0-14.41,20.39h0.06c-10.14,20-7.06,34.82-40.73,59.16,0,0,17,14.33,30.68.67-0.24,17.22,2.69,34-15.09,45.38a22.08,22.08,0,0,0,21.13-2.33c4.47,9.85,5.54,32.56-1.92,41.16,6.82,0.54,14.55-1.51,19.89-8.09,1.42,1.89,18.5,30.21,14.65,41.51,6.63-1.9,12.47-14.34,13.45-17.08,7.72,8.94,22.92,20.12,22.25,31.63,5.31-3.78,10.05-9.8,10.5-17.86,1.8,0.6,29.87,16.59,29.67,27.19,4.38-4,8.67-9.55,9.24-16.83l0.79,0.14c11.7,5.78,30,17.41,27.57,29.56,4.68-3.38,10-8.2,11.7-15.34,8.06,4,22.5,18.24,18,28.82,4.87-2.12,10.41-5.59,12.92-12,7.71,4.83,19,22.07,12.45,31.63,5.28-1.28,11.72-3.62,15.39-9.91,6.18,6,13.35,27.44,3.33,34,4.84,0.3,11,.7,16.38-2.67,2.7,7.38,2.77,31.65-12.07,29.71,3.89,3.2,8.74,7.76,15.69,8.09-2.07,9.33-19,24.24-29.49,17,1.5,5.13,3.74,11.4,9.91,15-6.92,6.2-27.19,13.23-34.23,2.67-0.48,4.93-.84,10.72,2.35,16-8.43,3.26-28,5.63-32.17-6.84-1.87,4.29-3.61,9.81-2.18,15.58-8.93,1.25-28.36-1-29.24-14.29-3,3.92-6.23,9.17-6,15.47-8.74-.67-27.27-10.52-24-22.54-4.43,3.3-9.64,7.25-11.05,14.5-8.63-4.06-21-22.86-12.74-31.71-5.22.83-11.84,2.35-16.15,7.9-5.77-7.19-10.24-27.31-1.38-34.47-5.58-.53-12.61-2.25-19.18,2.84-2.36-10.79-4.21-26.58,3.83-32.3-5.45-1-14.89-1.47-17.49,2.79-1.62-10.74-3.78-28,4.83-33.91-5.23-1.09-11.64-1.11-17.21,2.74-3.26-9-5.65-27.15,3.83-33.87-4.91-1-10.83-1-16.09,2.16-3.59-8.7-7.66-25.79,1.84-33.18-4.89-.82-10.68-0.62-15.76,2.64-4.26-8.46-9.11-25.09-.23-33.15-5.15-.5-11.16.26-16.06,4.26-5-7.84-10.14-25-3.17-33.41-5.48,0-11.77,1.9-16.14,7.28-5.61-6.41-12-25.55-8.32-33.32a19.79,19.79,0,0,0-14.3,11.36c-2.13-2.71-18.16-20.61-17.75-29.7a19.59,19.59,0,0,0-9,15.78c-8.37-3-24.61-10.48-28.17-19.53a20.61,20.61,0,0,0-2.28,16.5c-9.17,1.4-26.06,2.3-32.65-6.34a20.1,20.1,0,0,0,3.37,17.31c-6.58,4-27,8-33.4,5.88a18.78,18.78,0,0,0,10.94,12.78c-4.94,5.53-19.69,15-27.05,13.68a16.46,16.46,0,0,0,11.88,9.27C309,429.67,298.73,443,291.3,443.6c3.2,3.32,7.75,6,13.37,5.66-0.9,7.31-7.37,22.6-15.71,24.11,3.79,2.9,7.45,7.66,14.82,4.42-2.45,8.78-7.59,23.53-16.53,23.48,3.39,2.93,7.75,6.35,13.69,6.08-1.77,6.54-15.37,24.29-23.69,14.36,0.92,4.3,1.06,10.14,5.81,14.23-4.82,3.46-27.6,1.6-27.9-7.58-2,3.36-5,7.43-5.13,12.56-6.56-1.76-23.71-12.43-15.5-22.59-3.88,1-8.81,2.35-12.13,6.31-5.35-5.24-11-22.61-1.61-27.9-4.31-.89-10-1.57-14.93,1.71-2.3-7-.36-26.09,10.27-27-3.17-2.11-7.1-4.59-11.89-4.63,1.2-7,6.28-23.72,17.9-20.71-2-3-4.72-6.45-8.82-8.22,3.07-7,11.86-20.43,22.54-15.27-1.4-4-3.83-8.53-8.59-11,4-6.45,18.48-15.49,26.45-10.77-1.06-4.6-3.38-9.87-8.9-12.61,6.6-3.87,18.85-12.71,25.78-8.75-1-4.65-2.7-10.91-8.07-13.69,7.71-4.9,19-12.18,26.39-8.64-1.13-4.23-1-10-5.83-12.32,7.27-5.21,18.18-14.76,26.48-12.44-1.76-4.16-4.7-8.15-9.9-9.85,4.57-7.19,14.26-18.19,23-19.69-7-7.87-20.4-9.22-5.67-25.26-4-.55-10.84.26-14.06,4.05-0.83-5.49-7.34-13.87-5.54-20.33a13.71,13.71,0,0,0-7.8,9.11c-4.73-2.64-13.26-11.67-13.24-17.07a14.37,14.37,0,0,0-4.93,10.92c-5.31-1-15.9-8.22-17-13.49a14.6,14.6,0,0,0-2.51,11.94c-5.2.23-17.51-5.54-19.49-9.88a14.44,14.44,0,0,0,.23,12.35c1.14-.18-16.71.2-21.47-4.54a13.56,13.56,0,0,0,4,11.36c-13.49,6.53-49,35.52-65.14,33.69,21.74,2.47,92.11-35.08,89.44,7.79-1.28,20.58-46.71,53.54-58.71,69.32C151.37,421.46,132,468.79,137.21,518.16Z" transform="translate(-136.37 -180.11)"/>
</svg>
